# xmcd
#
# Track frame offsets:
#	150
#	10787
#	20612
#	29387
#	39717
#	53892
#	65215
#	77132
#	91665
#	105937
#	120115
#	134257
#	143115
#	160342
#	171975
#	187492
#	198850
#	210977
#	220157
#	235112
#	247237
#	259692
#	268645
#	278382
#	291590
#	300595
#	313395
#
# Disc length: 4341 seconds
#
# Revision: 0
# Processed by: cddbd v1.4PL0 Copyright (c) Steve Scherf et al.
# Submitted via: audiograbber 1.80
#
DISCID=8910f31b
DTITLE=dick curless - a tomstone every mile disc 2
DYEAR=1900
DGENRE=
TTITLE0=nine pound hammer (1) (with recitation) 1957
TTITLE1=i am a pilgrim 1996
TTITLE2=tuck me to sleep in my old kentucky home 1965
TTITLE3=i ain't got nobody 1965
TTITLE4=rain bow in my heart 1965
TTITLE5=some thin's wrong with you 1965
TTITLE6=ivel hearted man blues 1965
TTITLE7=i dreamed of a hillbily heaven 1960
TTITLE8=deck of cards 1960
TTITLE9=high noon 1960
TTITLE10=strawberry roan 1960
TTITLE11=red river valley 1960
TTITLE12=cowboy jack 1960
TTITLE13=on top of old smokey 1960
TTITLE14=home on the range 1960
TTITLE15=bury me not on the lone prairie 1960
TTITLE16=the old chisholm trail 1960
TTITLE17=i ride an old paint 1960
TTITLE18=whoopie ti yi yo 1960
TTITLE19=green grow the lilacs 1960
TTITLE20=the last rountup 1960
TTITLE21=the crawdad song 1960
TTITLE22=the rock island line 1960
TTITLE23=don't  fence me in 1960
TTITLE24=the big rock candy mountain 1960
TTITLE25=rovin' gambler 1960
TTITLE26=molly darlin' 1960
EXTD=
EXTT0=
EXTT1=
EXTT2=
EXTT3=
EXTT4=
EXTT5=
EXTT6=
EXTT7=
EXTT8=
EXTT9=
EXTT10=
EXTT11=
EXTT12=
EXTT13=
EXTT14=
EXTT15=
EXTT16=
EXTT17=
EXTT18=
EXTT19=
EXTT20=
EXTT21=
EXTT22=
EXTT23=
EXTT24=
EXTT25=
EXTT26=
PLAYORDER=
